<mxfile host="Electron" modified="2024-03-26T19:27:33.285Z" agent="Mozilla/5.0 (Macintosh; Intel Mac OS X 10_15_7) AppleWebKit/537.36 (KHTML, like Gecko) draw.io/24.1.0 Chrome/120.0.6099.109 Electron/28.1.0 Safari/537.36" etag="AvxKEq6vEugUjFmRiSFK" version="24.1.0" type="device">
  <diagram name="Page-1" id="3A1IMjMD97zvzvcFsJoG">
    <mxGraphModel dx="934" dy="452" grid="0" gridSize="10" guides="1" tooltips="1" connect="1" arrows="1" fold="1" page="0" pageScale="1" pageWidth="850" pageHeight="1100" math="0" shadow="0">
      <root>
        <mxCell id="0" />
        <mxCell id="1" parent="0" />
        <mxCell id="jsqRoM7-1IZ0ZfG3ARCj-5" value="function filterToday()" style="shape=process;whiteSpace=wrap;html=1;backgroundOutline=1;fillColor=#d80073;fontColor=#ffffff;strokeColor=#A50040;" vertex="1" parent="1">
          <mxGeometry x="40" y="50" width="120" height="60" as="geometry" />
        </mxCell>
        <mxCell id="jsqRoM7-1IZ0ZfG3ARCj-6" value="Filters out any date other than today" style="text;html=1;align=center;verticalAlign=middle;whiteSpace=wrap;rounded=0;" vertex="1" parent="1">
          <mxGeometry x="35" y="10" width="130" height="30" as="geometry" />
        </mxCell>
        <mxCell id="jsqRoM7-1IZ0ZfG3ARCj-7" value="&lt;font style=&quot;font-size: 11px;&quot;&gt;function nextAppointment()&lt;/font&gt;" style="shape=process;whiteSpace=wrap;html=1;backgroundOutline=1;fillColor=#0050ef;fontColor=#ffffff;strokeColor=#001DBC;" vertex="1" parent="1">
          <mxGeometry x="180" y="50" width="120" height="60" as="geometry" />
        </mxCell>
        <mxCell id="jsqRoM7-1IZ0ZfG3ARCj-8" value="Show Next Appointment" style="text;html=1;align=center;verticalAlign=middle;whiteSpace=wrap;rounded=0;" vertex="1" parent="1">
          <mxGeometry x="175" y="10" width="130" height="30" as="geometry" />
        </mxCell>
        <mxCell id="jsqRoM7-1IZ0ZfG3ARCj-9" value="Return Appointment Details" style="text;html=1;align=center;verticalAlign=middle;whiteSpace=wrap;rounded=0;" vertex="1" parent="1">
          <mxGeometry x="325" y="10" width="130" height="30" as="geometry" />
        </mxCell>
        <mxCell id="jsqRoM7-1IZ0ZfG3ARCj-10" value="&lt;font style=&quot;font-size: 11px;&quot;&gt;function appDetails()&lt;/font&gt;" style="shape=process;whiteSpace=wrap;html=1;backgroundOutline=1;fillColor=#008a00;fontColor=#ffffff;strokeColor=#005700;" vertex="1" parent="1">
          <mxGeometry x="330" y="50" width="120" height="60" as="geometry" />
        </mxCell>
        <mxCell id="jsqRoM7-1IZ0ZfG3ARCj-11" value="Show Past Meetings" style="text;html=1;align=center;verticalAlign=middle;whiteSpace=wrap;rounded=0;" vertex="1" parent="1">
          <mxGeometry x="480" y="10" width="130" height="30" as="geometry" />
        </mxCell>
        <mxCell id="jsqRoM7-1IZ0ZfG3ARCj-32" style="edgeStyle=orthogonalEdgeStyle;rounded=1;orthogonalLoop=1;jettySize=auto;html=1;entryX=0;entryY=0.5;entryDx=0;entryDy=0;exitX=0.75;exitY=1;exitDx=0;exitDy=0;curved=0;fillColor=#a20025;strokeColor=#6F0000;strokeWidth=3;" edge="1" parent="1" source="jsqRoM7-1IZ0ZfG3ARCj-12" target="jsqRoM7-1IZ0ZfG3ARCj-31">
          <mxGeometry relative="1" as="geometry">
            <Array as="points">
              <mxPoint x="580" y="255" />
            </Array>
          </mxGeometry>
        </mxCell>
        <mxCell id="jsqRoM7-1IZ0ZfG3ARCj-12" value="&lt;span style=&quot;font-size: 11px;&quot;&gt;function pastMeetings()&lt;/span&gt;" style="shape=process;whiteSpace=wrap;html=1;backgroundOutline=1;fillColor=#a20025;fontColor=#ffffff;strokeColor=#6F0000;" vertex="1" parent="1">
          <mxGeometry x="490" y="50" width="120" height="60" as="geometry" />
        </mxCell>
        <mxCell id="jsqRoM7-1IZ0ZfG3ARCj-13" value="&lt;h1 style=&quot;margin-top: 0px;&quot;&gt;&lt;span style=&quot;background-color: initial;&quot;&gt;D.R.Y&lt;/span&gt;.&lt;/h1&gt;&lt;div&gt;&lt;font size=&quot;3&quot;&gt;We try to keep from rewriting the same code over and over. #smarterNotHarder&lt;/font&gt;&lt;/div&gt;" style="text;html=1;whiteSpace=wrap;overflow=hidden;rounded=0;" vertex="1" parent="1">
          <mxGeometry x="650" y="10" width="180" height="140" as="geometry" />
        </mxCell>
        <mxCell id="jsqRoM7-1IZ0ZfG3ARCj-14" value="" style="shape=process;whiteSpace=wrap;html=1;backgroundOutline=1;fillColor=#6d8764;fontColor=#ffffff;strokeColor=#3A5431;" vertex="1" parent="1">
          <mxGeometry x="160" y="190" width="395" height="210" as="geometry" />
        </mxCell>
        <mxCell id="jsqRoM7-1IZ0ZfG3ARCj-15" value="Today&#39;s Next Appointment Details" style="text;html=1;align=center;verticalAlign=middle;resizable=0;points=[];autosize=1;strokeColor=none;fillColor=none;" vertex="1" parent="1">
          <mxGeometry x="255" y="160" width="200" height="30" as="geometry" />
        </mxCell>
        <mxCell id="jsqRoM7-1IZ0ZfG3ARCj-16" style="edgeStyle=orthogonalEdgeStyle;rounded=0;orthogonalLoop=1;jettySize=auto;html=1;entryX=0;entryY=0.5;entryDx=0;entryDy=0;exitX=0.5;exitY=1;exitDx=0;exitDy=0;jumpStyle=arc;fillColor=#d80073;strokeColor=#A50040;strokeWidth=3;" edge="1" parent="1" source="jsqRoM7-1IZ0ZfG3ARCj-5" target="jsqRoM7-1IZ0ZfG3ARCj-19">
          <mxGeometry relative="1" as="geometry" />
        </mxCell>
        <mxCell id="jsqRoM7-1IZ0ZfG3ARCj-23" style="edgeStyle=orthogonalEdgeStyle;rounded=0;orthogonalLoop=1;jettySize=auto;html=1;entryX=0.5;entryY=0;entryDx=0;entryDy=0;" edge="1" parent="1" source="jsqRoM7-1IZ0ZfG3ARCj-19" target="jsqRoM7-1IZ0ZfG3ARCj-20">
          <mxGeometry relative="1" as="geometry" />
        </mxCell>
        <mxCell id="jsqRoM7-1IZ0ZfG3ARCj-19" value="function filterToday()" style="shape=process;whiteSpace=wrap;html=1;backgroundOutline=1;fillColor=#d80073;fontColor=#ffffff;strokeColor=#A50040;" vertex="1" parent="1">
          <mxGeometry x="225" y="200" width="175" height="30" as="geometry" />
        </mxCell>
        <mxCell id="jsqRoM7-1IZ0ZfG3ARCj-24" style="edgeStyle=orthogonalEdgeStyle;rounded=0;orthogonalLoop=1;jettySize=auto;html=1;entryX=0.5;entryY=0;entryDx=0;entryDy=0;" edge="1" parent="1" source="jsqRoM7-1IZ0ZfG3ARCj-20" target="jsqRoM7-1IZ0ZfG3ARCj-22">
          <mxGeometry relative="1" as="geometry" />
        </mxCell>
        <mxCell id="jsqRoM7-1IZ0ZfG3ARCj-20" value="&lt;font style=&quot;font-size: 11px;&quot;&gt;function nextAppointment()&lt;/font&gt;" style="shape=process;whiteSpace=wrap;html=1;backgroundOutline=1;fillColor=#0050ef;fontColor=#ffffff;strokeColor=#001DBC;" vertex="1" parent="1">
          <mxGeometry x="225" y="250" width="175" height="30" as="geometry" />
        </mxCell>
        <mxCell id="jsqRoM7-1IZ0ZfG3ARCj-27" value="" style="edgeStyle=orthogonalEdgeStyle;rounded=1;orthogonalLoop=1;jettySize=auto;html=1;curved=0;entryX=0.25;entryY=0;entryDx=0;entryDy=0;" edge="1" parent="1" source="jsqRoM7-1IZ0ZfG3ARCj-22" target="jsqRoM7-1IZ0ZfG3ARCj-25">
          <mxGeometry relative="1" as="geometry">
            <Array as="points">
              <mxPoint x="313" y="340" />
              <mxPoint x="294" y="340" />
            </Array>
          </mxGeometry>
        </mxCell>
        <mxCell id="jsqRoM7-1IZ0ZfG3ARCj-22" value="&lt;font style=&quot;font-size: 11px;&quot;&gt;function appDetails()&lt;/font&gt;" style="shape=process;whiteSpace=wrap;html=1;backgroundOutline=1;fillColor=#008a00;fontColor=#ffffff;strokeColor=#005700;" vertex="1" parent="1">
          <mxGeometry x="225" y="300" width="175" height="30" as="geometry" />
        </mxCell>
        <mxCell id="jsqRoM7-1IZ0ZfG3ARCj-25" value="Returns today&#39;s next appointment details" style="rounded=1;whiteSpace=wrap;html=1;" vertex="1" parent="1">
          <mxGeometry x="225" y="360" width="275" height="30" as="geometry" />
        </mxCell>
        <mxCell id="jsqRoM7-1IZ0ZfG3ARCj-31" value="Isn&#39;t Used Here But Can Be!" style="text;html=1;align=center;verticalAlign=middle;whiteSpace=wrap;rounded=0;" vertex="1" parent="1">
          <mxGeometry x="700" y="240" width="100" height="30" as="geometry" />
        </mxCell>
        <mxCell id="jsqRoM7-1IZ0ZfG3ARCj-34" style="edgeStyle=orthogonalEdgeStyle;rounded=0;orthogonalLoop=1;jettySize=auto;html=1;entryX=0;entryY=0.5;entryDx=0;entryDy=0;jumpStyle=arc;fillColor=#0050ef;strokeColor=#001DBC;strokeWidth=3;jumpSize=6;" edge="1" parent="1" source="jsqRoM7-1IZ0ZfG3ARCj-7" target="jsqRoM7-1IZ0ZfG3ARCj-20">
          <mxGeometry relative="1" as="geometry">
            <Array as="points">
              <mxPoint x="240" y="160" />
              <mxPoint x="140" y="160" />
              <mxPoint x="140" y="265" />
            </Array>
          </mxGeometry>
        </mxCell>
        <mxCell id="jsqRoM7-1IZ0ZfG3ARCj-33" style="edgeStyle=orthogonalEdgeStyle;rounded=0;orthogonalLoop=1;jettySize=auto;html=1;entryX=0;entryY=0.5;entryDx=0;entryDy=0;jumpStyle=arc;fillColor=#60a917;strokeColor=#2D7600;strokeWidth=3;" edge="1" parent="1" source="jsqRoM7-1IZ0ZfG3ARCj-10" target="jsqRoM7-1IZ0ZfG3ARCj-22">
          <mxGeometry relative="1" as="geometry">
            <Array as="points">
              <mxPoint x="390" y="150" />
              <mxPoint x="130" y="150" />
              <mxPoint x="130" y="315" />
            </Array>
          </mxGeometry>
        </mxCell>
      </root>
    </mxGraphModel>
  </diagram>
</mxfile>
